<svg xmlns="http://www.w3.org/2000/svg" width="24" height="24" viewBox="0 0 24 24"><defs>
<linearGradient id="tile" x1="0" y1="0" x2="0" y2="1"><stop offset="0" stop-color="#f4679d"/><stop offset="1" stop-color="#de3e80"/></linearGradient>
<linearGradient id="phone" x1="0" y1="0" x2="0" y2="1"><stop offset="0" stop-color="#485a6c"/><stop offset="1" stop-color="#273445"/></linearGradient>
<linearGradient id="hl" x1="0" y1="0" x2="0" y2="1"><stop offset="0" stop-color="#fff"/><stop offset=".06" stop-color="#fff" stop-opacity=".235"/><stop offset=".95" stop-color="#fff" stop-opacity=".157"/><stop offset="1" stop-color="#fff" stop-opacity=".392"/></linearGradient>
<radialGradient id="floor"><stop offset="0" stop-color="#000"/><stop offset="1" stop-color="#000" stop-opacity="0"/></radialGradient>
</defs><g><rect x="3" y="2" width="10" height="17" rx="2.0" fill="url(#phone)"/><rect x="3.5" y="2.5" width="9" height="16" rx="1.5" fill="none" stroke="#0e141f" stroke-opacity=".6"/></g><rect x="7" y="8" width="15" height="15" rx="1.5" fill="#000" opacity=".15"/><rect x="7" y="7" width="15" height="15" rx="1.5" fill="url(#tile)"/><rect x="7.5" y="7.5" width="14" height="14" rx="1.0" fill="none" stroke="#910e38" stroke-opacity=".5"/><path d="M-50 24 C-33 0 -16 -16 0 -18 C15 -17 30 -2 47 18 C51 24 45 32 38 28 C27 16 14 6 1 6 C-12 7 -26 20 -38 33 C-43 39 -54 31 -50 24 Z" transform="translate(14.50 15.10) rotate(-12) scale(0.1350)" fill="#fff"/></svg>
