<svg xmlns="http://www.w3.org/2000/svg" width="1200" height="900" viewBox="0 0 1200 900"><defs></defs><rect width="100%" height="100%" fill="#f6eef7"/><circle cx="254" cy="495" r="56" fill="#f5d6e8" opacity="0.52"/><circle cx="707" cy="558" r="111" fill="#d9c2f0" opacity="0.44"/><circle cx="249" cy="956" r="66" fill="#f5d6e8" opacity="0.52"/><circle cx="784" cy="94" r="83" fill="#f5d6e8" opacity="0.49"/><circle cx="-40" cy="733" r="34" fill="#f5d6e8" opacity="0.36"/><circle cx="970" cy="780" r="45" fill="#f5d6e8" opacity="0.60"/><circle cx="1100" cy="668" r="112" fill="#d9c2f0" opacity="0.60"/><circle cx="702" cy="923" r="32" fill="#f0c9e0" opacity="0.38"/><circle cx="119" cy="161" r="116" fill="#d9c2f0" opacity="0.62"/><circle cx="1069" cy="370" r="103" fill="#f5d6e8" opacity="0.47"/><circle cx="712" cy="536" r="110" fill="#e2b8de" opacity="0.65"/><circle cx="1248" cy="625" r="35" fill="#f0c9e0" opacity="0.69"/><circle cx="1134" cy="520" r="91" fill="#cfa0d8" opacity="0.57"/><circle cx="1244" cy="212" r="31" fill="#d9c2f0" opacity="0.65"/><circle cx="1247" cy="30" r="100" fill="#d9c2f0" opacity="0.66"/><circle cx="-33" cy="376" r="60" fill="#e2b8de" opacity="0.37"/><circle cx="751" cy="-14" r="91" fill="#f0c9e0" opacity="0.54"/><circle cx="1157" cy="225" r="42" fill="#e2b8de" opacity="0.46"/><circle cx="42" cy="552" r="21" fill="#cfa0d8" opacity="0.69"/><circle cx="325" cy="209" r="88" fill="#f0c9e0" opacity="0.46"/><circle cx="1205" cy="855" r="57" fill="#d9c2f0" opacity="0.65"/><circle cx="450" cy="824" r="87" fill="#e2b8de" opacity="0.57"/><circle cx="1182" cy="457" r="62" fill="#cfa0d8" opacity="0.68"/><circle cx="517" cy="203" r="49" fill="#f0c9e0" opacity="0.35"/><circle cx="488" cy="532" r="20" fill="#f5d6e8" opacity="0.56"/><circle cx="116" cy="586" r="52" fill="#f0c9e0" opacity="0.59"/><circle cx="405" cy="661" r="93" fill="#e2b8de" opacity="0.56"/><circle cx="1200" cy="-38" r="56" fill="#d9c2f0" opacity="0.45"/><circle cx="734" cy="121" r="37" fill="#f0c9e0" opacity="0.65"/><circle cx="289" cy="743" r="29" fill="#e2b8de" opacity="0.69"/><circle cx="843" cy="74" r="69" fill="#f0c9e0" opacity="0.43"/><circle cx="187" cy="384" r="89" fill="#e2b8de" opacity="0.56"/><circle cx="1193" cy="628" r="41" fill="#cfa0d8" opacity="0.38"/><circle cx="920" cy="162" r="76" fill="#f0c9e0" opacity="0.43"/><circle cx="100" cy="480" r="37" fill="#f5d6e8" opacity="0.41"/><circle cx="308" cy="763" r="83" fill="#f5d6e8" opacity="0.47"/><circle cx="111" cy="238" r="99" fill="#f0c9e0" opacity="0.51"/><circle cx="777" cy="236" r="76" fill="#e2b8de" opacity="0.67"/><circle cx="146" cy="-55" r="114" fill="#f5d6e8" opacity="0.70"/><circle cx="513" cy="909" r="113" fill="#cfa0d8" opacity="0.36"/><circle cx="543" cy="708" r="94" fill="#f0c9e0" opacity="0.54"/><circle cx="1114" cy="819" r="106" fill="#f0c9e0" opacity="0.39"/><circle cx="263" cy="-24" r="100" fill="#f5d6e8" opacity="0.67"/><circle cx="1123" cy="858" r="77" fill="#e2b8de" opacity="0.52"/><circle cx="99" cy="453" r="42" fill="#e2b8de" opacity="0.53"/><circle cx="486" cy="898" r="80" fill="#f0c9e0" opacity="0.39"/></svg>
