<svg xmlns="http://www.w3.org/2000/svg" width="1200" height="900" viewBox="0 0 1200 900"><defs></defs><rect width="100%" height="100%" fill="#fdf1e6"/><circle cx="0" cy="0" r="7" fill="#f4b78a" opacity="0.6"/><circle cx="50" cy="0" r="7" fill="#f4b78a" opacity="0.6"/><circle cx="100" cy="0" r="7" fill="#f4b78a" opacity="0.6"/><circle cx="150" cy="0" r="7" fill="#f4b78a" opacity="0.6"/><circle cx="200" cy="0" r="7" fill="#f4b78a" opacity="0.6"/><circle cx="250" cy="0" r="7" fill="#f4b78a" opacity="0.6"/><circle cx="300" cy="0" r="7" fill="#f4b78a" opacity="0.6"/><circle cx="350" cy="0" r="7" fill="#f4b78a" opacity="0.6"/><circle cx="400" cy="0" r="7" fill="#f4b78a" opacity="0.6"/><circle cx="450" cy="0" r="7" fill="#f4b78a" opacity="0.6"/><circle cx="500" cy="0" r="7" fill="#f4b78a" opacity="0.6"/><circle cx="550" cy="0" r="7" fill="#f4b78a" opacity="0.6"/><circle cx="600" cy="0" r="7" fill="#f4b78a" opacity="0.6"/><circle cx="650" cy="0" r="7" fill="#f4b78a" opacity="0.6"/><circle cx="700" cy="0" r="7" fill="#f4b78a" opacity="0.6"/><circle cx="750" cy="0" r="7" fill="#f4b78a" opacity="0.6"/><circle cx="800" cy="0" r="7" fill="#f4b78a" opacity="0.6"/><circle cx="850" cy="0" r="7" fill="#f4b78a" opacity="0.6"/><circle cx="900" cy="0" r="7" fill="#f4b78a" opacity="0.6"/><circle cx="950" cy="0" r="7" fill="#f4b78a" opacity="0.6"/><circle cx="1000" cy="0" r="7" fill="#f4b78a" opacity="0.6"/><circle cx="1050" cy="0" r="7" fill="#f4b78a" opacity="0.6"/><circle cx="1100" cy="0" r="7" fill="#f4b78a" opacity="0.6"/><circle cx="1150" cy="0" r="7" fill="#f4b78a" opacity="0.6"/><circle cx="1200" cy="0" r="7" fill="#f4b78a" opacity="0.6"/><circle cx="1250" cy="0" r="7" fill="#f4b78a" opacity="0.6"/><circle cx="25" cy="50" r="7" fill="#f4b78a" opacity="0.6"/><circle cx="75" cy="50" r="7" fill="#f4b78a" opacity="0.6"/><circle cx="125" cy="50" r="7" fill="#f4b78a" opacity="0.6"/><circle cx="175" cy="50" r="7" fill="#f4b78a" opacity="0.6"/><circle cx="225" cy="50" r="7" fill="#f4b78a" opacity="0.6"/><circle cx="275" cy="50" r="7" fill="#f4b78a" opacity="0.6"/><circle cx="325" cy="50" r="7" fill="#f4b78a" opacity="0.6"/><circle cx="375" cy="50" r="7" fill="#f4b78a" opacity="0.6"/><circle cx="425" cy="50" r="7" fill="#f4b78a" opacity="0.6"/><circle cx="475" cy="50" r="7" fill="#f4b78a" opacity="0.6"/><circle cx="525" cy="50" r="7" fill="#f4b78a" opacity="0.6"/><circle cx="575" cy="50" r="7" fill="#f4b78a" opacity="0.6"/><circle cx="625" cy="50" r="7" fill="#f4b78a" opacity="0.6"/><circle cx="675" cy="50" r="7" fill="#f4b78a" opacity="0.6"/><circle cx="725" cy="50" r="7" fill="#f4b78a" opacity="0.6"/><circle cx="775" cy="50" r="7" fill="#f4b78a" opacity="0.6"/><circle cx="825" cy="50" r="7" fill="#f4b78a" opacity="0.6"/><circle cx="875" cy="50" r="7" fill="#f4b78a" opacity="0.6"/><circle cx="925" cy="50" r="7" fill="#f4b78a" opacity="0.6"/><circle cx="975" cy="50" r="7" fill="#f4b78a" opacity="0.6"/><circle cx="1025" cy="50" r="7" fill="#f4b78a" opacity="0.6"/><circle cx="1075" cy="50" r="7" fill="#f4b78a" opacity="0.6"/><circle cx="1125" cy="50" r="7" fill="#f4b78a" opacity="0.6"/><circle cx="1175" cy="50" r="7" fill="#f4b78a" opacity="0.6"/><circle cx="1225" cy="50" r="7" fill="#f4b78a" opacity="0.6"/><circle cx="1275" cy="50" r="7" fill="#f4b78a" opacity="0.6"/><circle cx="0" cy="100" r="7" fill="#f4b78a" opacity="0.6"/><circle cx="50" cy="100" r="7" fill="#f4b78a" opacity="0.6"/><circle cx="100" cy="100" r="7" fill="#f4b78a" opacity="0.6"/><circle cx="150" cy="100" r="7" fill="#f4b78a" opacity="0.6"/><circle cx="200" cy="100" r="7" fill="#f4b78a" opacity="0.6"/><circle cx="250" cy="100" r="7" fill="#f4b78a" opacity="0.6"/><circle cx="300" cy="100" r="7" fill="#f4b78a" opacity="0.6"/><circle cx="350" cy="100" r="7" fill="#f4b78a" opacity="0.6"/><circle cx="400" cy="100" r="7" fill="#f4b78a" opacity="0.6"/><circle cx="450" cy="100" r="7" fill="#f4b78a" opacity="0.6"/><circle cx="500" cy="100" r="7" fill="#f4b78a" opacity="0.6"/><circle cx="550" cy="100" r="7" fill="#f4b78a" opacity="0.6"/><circle cx="600" cy="100" r="7" fill="#f4b78a" opacity="0.6"/><circle cx="650" cy="100" r="7" fill="#f4b78a" opacity="0.6"/><circle cx="700" cy="100" r="7" fill="#f4b78a" opacity="0.6"/><circle cx="750" cy="100" r="7" fill="#f4b78a" opacity="0.6"/><circle cx="800" cy="100" r="7" fill="#f4b78a" opacity="0.6"/><circle cx="850" cy="100" r="7" fill="#f4b78a" opacity="0.6"/><circle cx="900" cy="100" r="7" fill="#f4b78a" opacity="0.6"/><circle cx="950" cy="100" r="7" fill="#f4b78a" opacity="0.6"/><circle cx="1000" cy="100" r="7" fill="#f4b78a" opacity="0.6"/><circle cx="1050" cy="100" r="7" fill="#f4b78a" opacity="0.6"/><circle cx="1100" cy="100" r="7" fill="#f4b78a" opacity="0.6"/><circle cx="1150" cy="100" r="7" fill="#f4b78a" opacity="0.6"/><circle cx="1200" cy="100" r="7" fill="#f4b78a" opacity="0.6"/><circle cx="1250" cy="100" r="7" fill="#f4b78a" opacity="0.6"/><circle cx="25" cy="150" r="7" fill="#f4b78a" opacity="0.6"/><circle cx="75" cy="150" r="7" fill="#f4b78a" opacity="0.6"/><circle cx="125" cy="150" r="7" fill="#f4b78a" opacity="0.6"/><circle cx="175" cy="150" r="7" fill="#f4b78a" opacity="0.6"/><circle cx="225" cy="150" r="7" fill="#f4b78a" opacity="0.6"/><circle cx="275" cy="150" r="7" fill="#f4b78a" opacity="0.6"/><circle cx="325" cy="150" r="7" fill="#f4b78a" opacity="0.6"/><circle cx="375" cy="150" r="7" fill="#f4b78a" opacity="0.6"/><circle cx="425" cy="150" r="7" fill="#f4b78a" opacity="0.6"/><circle cx="475" cy="150" r="7" fill="#f4b78a" opacity="0.6"/><circle cx="525" cy="150" r="7" fill="#f4b78a" opacity="0.6"/><circle cx="575" cy="150" r="7" fill="#f4b78a" opacity="0.6"/><circle cx="625" cy="150" r="7" fill="#f4b78a" opacity="0.6"/><circle cx="675" cy="150" r="7" fill="#f4b78a" opacity="0.6"/><circle cx="725" cy="150" r="7" fill="#f4b78a" opacity="0.6"/><circle cx="775" cy="150" r="7" fill="#f4b78a" opacity="0.6"/><circle cx="825" cy="150" r="7" fill="#f4b78a" opacity="0.6"/><circle cx="875" cy="150" r="7" fill="#f4b78a" opacity="0.6"/><circle cx="925" cy="150" r="7" fill="#f4b78a" opacity="0.6"/><circle cx="975" cy="150" r="7" fill="#f4b78a" opacity="0.6"/><circle cx="1025" cy="150" r="7" fill="#f4b78a" opacity="0.6"/><circle cx="1075" cy="150" r="7" fill="#f4b78a" opacity="0.6"/><circle cx="1125" cy="150" r="7" fill="#f4b78a" opacity="0.6"/><circle cx="1175" cy="150" r="7" fill="#f4b78a" opacity="0.6"/><circle cx="1225" cy="150" r="7" fill="#f4b78a" opacity="0.6"/><circle cx="1275" cy="150" r="7" fill="#f4b78a" opacity="0.6"/><circle cx="0" cy="200" r="7" fill="#f4b78a" opacity="0.6"/><circle cx="50" cy="200" r="7" fill="#f4b78a" opacity="0.6"/><circle cx="100" cy="200" r="7" fill="#f4b78a" opacity="0.6"/><circle cx="150" cy="200" r="7" fill="#f4b78a" opacity="0.6"/><circle cx="200" cy="200" r="7" fill="#f4b78a" opacity="0.6"/><circle cx="250" cy="200" r="7" fill="#f4b78a" opacity="0.6"/><circle cx="300" cy="200" r="7" fill="#f4b78a" opacity="0.6"/><circle cx="350" cy="200" r="7" fill="#f4b78a" opacity="0.6"/><circle cx="400" cy="200" r="7" fill="#f4b78a" opacity="0.6"/><circle cx="450" cy="200" r="7" fill="#f4b78a" opacity="0.6"/><circle cx="500" cy="200" r="7" fill="#f4b78a" opacity="0.6"/><circle cx="550" cy="200" r="7" fill="#f4b78a" opacity="0.6"/><circle cx="600" cy="200" r="7" fill="#f4b78a" opacity="0.6"/><circle cx="650" cy="200" r="7" fill="#f4b78a" opacity="0.6"/><circle cx="700" cy="200" r="7" fill="#f4b78a" opacity="0.6"/><circle cx="750" cy="200" r="7" fill="#f4b78a" opacity="0.6"/><circle cx="800" cy="200" r="7" fill="#f4b78a" opacity="0.6"/><circle cx="850" cy="200" r="7" fill="#f4b78a" opacity="0.6"/><circle cx="900" cy="200" r="7" fill="#f4b78a" opacity="0.6"/><circle cx="950" cy="200" r="7" fill="#f4b78a" opacity="0.6"/><circle cx="1000" cy="200" r="7" fill="#f4b78a" opacity="0.6"/><circle cx="1050" cy="200" r="7" fill="#f4b78a" opacity="0.6"/><circle cx="1100" cy="200" r="7" fill="#f4b78a" opacity="0.6"/><circle cx="1150" cy="200" r="7" fill="#f4b78a" opacity="0.6"/><circle cx="1200" cy="200" r="7" fill="#f4b78a" opacity="0.6"/><circle cx="1250" cy="200" r="7" fill="#f4b78a" opacity="0.6"/><circle cx="25" cy="250" r="7" fill="#f4b78a" opacity="0.6"/><circle cx="75" cy="250" r="7" fill="#f4b78a" opacity="0.6"/><circle cx="125" cy="250" r="7" fill="#f4b78a" opacity="0.6"/><circle cx="175" cy="250" r="7" fill="#f4b78a" opacity="0.6"/><circle cx="225" cy="250" r="7" fill="#f4b78a" opacity="0.6"/><circle cx="275" cy="250" r="7" fill="#f4b78a" opacity="0.6"/><circle cx="325" cy="250" r="7" fill="#f4b78a" opacity="0.6"/><circle cx="375" cy="250" r="7" fill="#f4b78a" opacity="0.6"/><circle cx="425" cy="250" r="7" fill="#f4b78a" opacity="0.6"/><circle cx="475" cy="250" r="7" fill="#f4b78a" opacity="0.6"/><circle cx="525" cy="250" r="7" fill="#f4b78a" opacity="0.6"/><circle cx="575" cy="250" r="7" fill="#f4b78a" opacity="0.6"/><circle cx="625" cy="250" r="7" fill="#f4b78a" opacity="0.6"/><circle cx="675" cy="250" r="7" fill="#f4b78a" opacity="0.6"/><circle cx="725" cy="250" r="7" fill="#f4b78a" opacity="0.6"/><circle cx="775" cy="250" r="7" fill="#f4b78a" opacity="0.6"/><circle cx="825" cy="250" r="7" fill="#f4b78a" opacity="0.6"/><circle cx="875" cy="250" r="7" fill="#f4b78a" opacity="0.6"/><circle cx="925" cy="250" r="7" fill="#f4b78a" opacity="0.6"/><circle cx="975" cy="250" r="7" fill="#f4b78a" opacity="0.6"/><circle cx="1025" cy="250" r="7" fill="#f4b78a" opacity="0.6"/><circle cx="1075" cy="250" r="7" fill="#f4b78a" opacity="0.6"/><circle cx="1125" cy="250" r="7" fill="#f4b78a" opacity="0.6"/><circle cx="1175" cy="250" r="7" fill="#f4b78a" opacity="0.6"/><circle cx="1225" cy="250" r="7" fill="#f4b78a" opacity="0.6"/><circle cx="1275" cy="250" r="7" fill="#f4b78a" opacity="0.6"/><circle cx="0" cy="300" r="7" fill="#f4b78a" opacity="0.6"/><circle cx="50" cy="300" r="7" fill="#f4b78a" opacity="0.6"/><circle cx="100" cy="300" r="7" fill="#f4b78a" opacity="0.6"/><circle cx="150" cy="300" r="7" fill="#f4b78a" opacity="0.6"/><circle cx="200" cy="300" r="7" fill="#f4b78a" opacity="0.6"/><circle cx="250" cy="300" r="7" fill="#f4b78a" opacity="0.6"/><circle cx="300" cy="300" r="7" fill="#f4b78a" opacity="0.6"/><circle cx="350" cy="300" r="7" fill="#f4b78a" opacity="0.6"/><circle cx="400" cy="300" r="7" fill="#f4b78a" opacity="0.6"/><circle cx="450" cy="300" r="7" fill="#f4b78a" opacity="0.6"/><circle cx="500" cy="300" r="7" fill="#f4b78a" opacity="0.6"/><circle cx="550" cy="300" r="7" fill="#f4b78a" opacity="0.6"/><circle cx="600" cy="300" r="7" fill="#f4b78a" opacity="0.6"/><circle cx="650" cy="300" r="7" fill="#f4b78a" opacity="0.6"/><circle cx="700" cy="300" r="7" fill="#f4b78a" opacity="0.6"/><circle cx="750" cy="300" r="7" fill="#f4b78a" opacity="0.6"/><circle cx="800" cy="300" r="7" fill="#f4b78a" opacity="0.6"/><circle cx="850" cy="300" r="7" fill="#f4b78a" opacity="0.6"/><circle cx="900" cy="300" r="7" fill="#f4b78a" opacity="0.6"/><circle cx="950" cy="300" r="7" fill="#f4b78a" opacity="0.6"/><circle cx="1000" cy="300" r="7" fill="#f4b78a" opacity="0.6"/><circle cx="1050" cy="300" r="7" fill="#f4b78a" opacity="0.6"/><circle cx="1100" cy="300" r="7" fill="#f4b78a" opacity="0.6"/><circle cx="1150" cy="300" r="7" fill="#f4b78a" opacity="0.6"/><circle cx="1200" cy="300" r="7" fill="#f4b78a" opacity="0.6"/><circle cx="1250" cy="300" r="7" fill="#f4b78a" opacity="0.6"/><circle cx="25" cy="350" r="7" fill="#f4b78a" opacity="0.6"/><circle cx="75" cy="350" r="7" fill="#f4b78a" opacity="0.6"/><circle cx="125" cy="350" r="7" fill="#f4b78a" opacity="0.6"/><circle cx="175" cy="350" r="7" fill="#f4b78a" opacity="0.6"/><circle cx="225" cy="350" r="7" fill="#f4b78a" opacity="0.6"/><circle cx="275" cy="350" r="7" fill="#f4b78a" opacity="0.6"/><circle cx="325" cy="350" r="7" fill="#f4b78a" opacity="0.6"/><circle cx="375" cy="350" r="7" fill="#f4b78a" opacity="0.6"/><circle cx="425" cy="350" r="7" fill="#f4b78a" opacity="0.6"/><circle cx="475" cy="350" r="7" fill="#f4b78a" opacity="0.6"/><circle cx="525" cy="350" r="7" fill="#f4b78a" opacity="0.6"/><circle cx="575" cy="350" r="7" fill="#f4b78a" opacity="0.6"/><circle cx="625" cy="350" r="7" fill="#f4b78a" opacity="0.6"/><circle cx="675" cy="350" r="7" fill="#f4b78a" opacity="0.6"/><circle cx="725" cy="350" r="7" fill="#f4b78a" opacity="0.6"/><circle cx="775" cy="350" r="7" fill="#f4b78a" opacity="0.6"/><circle cx="825" cy="350" r="7" fill="#f4b78a" opacity="0.6"/><circle cx="875" cy="350" r="7" fill="#f4b78a" opacity="0.6"/><circle cx="925" cy="350" r="7" fill="#f4b78a" opacity="0.6"/><circle cx="975" cy="350" r="7" fill="#f4b78a" opacity="0.6"/><circle cx="1025" cy="350" r="7" fill="#f4b78a" opacity="0.6"/><circle cx="1075" cy="350" r="7" fill="#f4b78a" opacity="0.6"/><circle cx="1125" cy="350" r="7" fill="#f4b78a" opacity="0.6"/><circle cx="1175" cy="350" r="7" fill="#f4b78a" opacity="0.6"/><circle cx="1225" cy="350" r="7" fill="#f4b78a" opacity="0.6"/><circle cx="1275" cy="350" r="7" fill="#f4b78a" opacity="0.6"/><circle cx="0" cy="400" r="7" fill="#f4b78a" opacity="0.6"/><circle cx="50" cy="400" r="7" fill="#f4b78a" opacity="0.6"/><circle cx="100" cy="400" r="7" fill="#f4b78a" opacity="0.6"/><circle cx="150" cy="400" r="7" fill="#f4b78a" opacity="0.6"/><circle cx="200" cy="400" r="7" fill="#f4b78a" opacity="0.6"/><circle cx="250" cy="400" r="7" fill="#f4b78a" opacity="0.6"/><circle cx="300" cy="400" r="7" fill="#f4b78a" opacity="0.6"/><circle cx="350" cy="400" r="7" fill="#f4b78a" opacity="0.6"/><circle cx="400" cy="400" r="7" fill="#f4b78a" opacity="0.6"/><circle cx="450" cy="400" r="7" fill="#f4b78a" opacity="0.6"/><circle cx="500" cy="400" r="7" fill="#f4b78a" opacity="0.6"/><circle cx="550" cy="400" r="7" fill="#f4b78a" opacity="0.6"/><circle cx="600" cy="400" r="7" fill="#f4b78a" opacity="0.6"/><circle cx="650" cy="400" r="7" fill="#f4b78a" opacity="0.6"/><circle cx="700" cy="400" r="7" fill="#f4b78a" opacity="0.6"/><circle cx="750" cy="400" r="7" fill="#f4b78a" opacity="0.6"/><circle cx="800" cy="400" r="7" fill="#f4b78a" opacity="0.6"/><circle cx="850" cy="400" r="7" fill="#f4b78a" opacity="0.6"/><circle cx="900" cy="400" r="7" fill="#f4b78a" opacity="0.6"/><circle cx="950" cy="400" r="7" fill="#f4b78a" opacity="0.6"/><circle cx="1000" cy="400" r="7" fill="#f4b78a" opacity="0.6"/><circle cx="1050" cy="400" r="7" fill="#f4b78a" opacity="0.6"/><circle cx="1100" cy="400" r="7" fill="#f4b78a" opacity="0.6"/><circle cx="1150" cy="400" r="7" fill="#f4b78a" opacity="0.6"/><circle cx="1200" cy="400" r="7" fill="#f4b78a" opacity="0.6"/><circle cx="1250" cy="400" r="7" fill="#f4b78a" opacity="0.6"/><circle cx="25" cy="450" r="7" fill="#f4b78a" opacity="0.6"/><circle cx="75" cy="450" r="7" fill="#f4b78a" opacity="0.6"/><circle cx="125" cy="450" r="7" fill="#f4b78a" opacity="0.6"/><circle cx="175" cy="450" r="7" fill="#f4b78a" opacity="0.6"/><circle cx="225" cy="450" r="7" fill="#f4b78a" opacity="0.6"/><circle cx="275" cy="450" r="7" fill="#f4b78a" opacity="0.6"/><circle cx="325" cy="450" r="7" fill="#f4b78a" opacity="0.6"/><circle cx="375" cy="450" r="7" fill="#f4b78a" opacity="0.6"/><circle cx="425" cy="450" r="7" fill="#f4b78a" opacity="0.6"/><circle cx="475" cy="450" r="7" fill="#f4b78a" opacity="0.6"/><circle cx="525" cy="450" r="7" fill="#f4b78a" opacity="0.6"/><circle cx="575" cy="450" r="7" fill="#f4b78a" opacity="0.6"/><circle cx="625" cy="450" r="7" fill="#f4b78a" opacity="0.6"/><circle cx="675" cy="450" r="7" fill="#f4b78a" opacity="0.6"/><circle cx="725" cy="450" r="7" fill="#f4b78a" opacity="0.6"/><circle cx="775" cy="450" r="7" fill="#f4b78a" opacity="0.6"/><circle cx="825" cy="450" r="7" fill="#f4b78a" opacity="0.6"/><circle cx="875" cy="450" r="7" fill="#f4b78a" opacity="0.6"/><circle cx="925" cy="450" r="7" fill="#f4b78a" opacity="0.6"/><circle cx="975" cy="450" r="7" fill="#f4b78a" opacity="0.6"/><circle cx="1025" cy="450" r="7" fill="#f4b78a" opacity="0.6"/><circle cx="1075" cy="450" r="7" fill="#f4b78a" opacity="0.6"/><circle cx="1125" cy="450" r="7" fill="#f4b78a" opacity="0.6"/><circle cx="1175" cy="450" r="7" fill="#f4b78a" opacity="0.6"/><circle cx="1225" cy="450" r="7" fill="#f4b78a" opacity="0.6"/><circle cx="1275" cy="450" r="7" fill="#f4b78a" opacity="0.6"/><circle cx="0" cy="500" r="7" fill="#f4b78a" opacity="0.6"/><circle cx="50" cy="500" r="7" fill="#f4b78a" opacity="0.6"/><circle cx="100" cy="500" r="7" fill="#f4b78a" opacity="0.6"/><circle cx="150" cy="500" r="7" fill="#f4b78a" opacity="0.6"/><circle cx="200" cy="500" r="7" fill="#f4b78a" opacity="0.6"/><circle cx="250" cy="500" r="7" fill="#f4b78a" opacity="0.6"/><circle cx="300" cy="500" r="7" fill="#f4b78a" opacity="0.6"/><circle cx="350" cy="500" r="7" fill="#f4b78a" opacity="0.6"/><circle cx="400" cy="500" r="7" fill="#f4b78a" opacity="0.6"/><circle cx="450" cy="500" r="7" fill="#f4b78a" opacity="0.6"/><circle cx="500" cy="500" r="7" fill="#f4b78a" opacity="0.6"/><circle cx="550" cy="500" r="7" fill="#f4b78a" opacity="0.6"/><circle cx="600" cy="500" r="7" fill="#f4b78a" opacity="0.6"/><circle cx="650" cy="500" r="7" fill="#f4b78a" opacity="0.6"/><circle cx="700" cy="500" r="7" fill="#f4b78a" opacity="0.6"/><circle cx="750" cy="500" r="7" fill="#f4b78a" opacity="0.6"/><circle cx="800" cy="500" r="7" fill="#f4b78a" opacity="0.6"/><circle cx="850" cy="500" r="7" fill="#f4b78a" opacity="0.6"/><circle cx="900" cy="500" r="7" fill="#f4b78a" opacity="0.6"/><circle cx="950" cy="500" r="7" fill="#f4b78a" opacity="0.6"/><circle cx="1000" cy="500" r="7" fill="#f4b78a" opacity="0.6"/><circle cx="1050" cy="500" r="7" fill="#f4b78a" opacity="0.6"/><circle cx="1100" cy="500" r="7" fill="#f4b78a" opacity="0.6"/><circle cx="1150" cy="500" r="7" fill="#f4b78a" opacity="0.6"/><circle cx="1200" cy="500" r="7" fill="#f4b78a" opacity="0.6"/><circle cx="1250" cy="500" r="7" fill="#f4b78a" opacity="0.6"/><circle cx="25" cy="550" r="7" fill="#f4b78a" opacity="0.6"/><circle cx="75" cy="550" r="7" fill="#f4b78a" opacity="0.6"/><circle cx="125" cy="550" r="7" fill="#f4b78a" opacity="0.6"/><circle cx="175" cy="550" r="7" fill="#f4b78a" opacity="0.6"/><circle cx="225" cy="550" r="7" fill="#f4b78a" opacity="0.6"/><circle cx="275" cy="550" r="7" fill="#f4b78a" opacity="0.6"/><circle cx="325" cy="550" r="7" fill="#f4b78a" opacity="0.6"/><circle cx="375" cy="550" r="7" fill="#f4b78a" opacity="0.6"/><circle cx="425" cy="550" r="7" fill="#f4b78a" opacity="0.6"/><circle cx="475" cy="550" r="7" fill="#f4b78a" opacity="0.6"/><circle cx="525" cy="550" r="7" fill="#f4b78a" opacity="0.6"/><circle cx="575" cy="550" r="7" fill="#f4b78a" opacity="0.6"/><circle cx="625" cy="550" r="7" fill="#f4b78a" opacity="0.6"/><circle cx="675" cy="550" r="7" fill="#f4b78a" opacity="0.6"/><circle cx="725" cy="550" r="7" fill="#f4b78a" opacity="0.6"/><circle cx="775" cy="550" r="7" fill="#f4b78a" opacity="0.6"/><circle cx="825" cy="550" r="7" fill="#f4b78a" opacity="0.6"/><circle cx="875" cy="550" r="7" fill="#f4b78a" opacity="0.6"/><circle cx="925" cy="550" r="7" fill="#f4b78a" opacity="0.6"/><circle cx="975" cy="550" r="7" fill="#f4b78a" opacity="0.6"/><circle cx="1025" cy="550" r="7" fill="#f4b78a" opacity="0.6"/><circle cx="1075" cy="550" r="7" fill="#f4b78a" opacity="0.6"/><circle cx="1125" cy="550" r="7" fill="#f4b78a" opacity="0.6"/><circle cx="1175" cy="550" r="7" fill="#f4b78a" opacity="0.6"/><circle cx="1225" cy="550" r="7" fill="#f4b78a" opacity="0.6"/><circle cx="1275" cy="550" r="7" fill="#f4b78a" opacity="0.6"/><circle cx="0" cy="600" r="7" fill="#f4b78a" opacity="0.6"/><circle cx="50" cy="600" r="7" fill="#f4b78a" opacity="0.6"/><circle cx="100" cy="600" r="7" fill="#f4b78a" opacity="0.6"/><circle cx="150" cy="600" r="7" fill="#f4b78a" opacity="0.6"/><circle cx="200" cy="600" r="7" fill="#f4b78a" opacity="0.6"/><circle cx="250" cy="600" r="7" fill="#f4b78a" opacity="0.6"/><circle cx="300" cy="600" r="7" fill="#f4b78a" opacity="0.6"/><circle cx="350" cy="600" r="7" fill="#f4b78a" opacity="0.6"/><circle cx="400" cy="600" r="7" fill="#f4b78a" opacity="0.6"/><circle cx="450" cy="600" r="7" fill="#f4b78a" opacity="0.6"/><circle cx="500" cy="600" r="7" fill="#f4b78a" opacity="0.6"/><circle cx="550" cy="600" r="7" fill="#f4b78a" opacity="0.6"/><circle cx="600" cy="600" r="7" fill="#f4b78a" opacity="0.6"/><circle cx="650" cy="600" r="7" fill="#f4b78a" opacity="0.6"/><circle cx="700" cy="600" r="7" fill="#f4b78a" opacity="0.6"/><circle cx="750" cy="600" r="7" fill="#f4b78a" opacity="0.6"/><circle cx="800" cy="600" r="7" fill="#f4b78a" opacity="0.6"/><circle cx="850" cy="600" r="7" fill="#f4b78a" opacity="0.6"/><circle cx="900" cy="600" r="7" fill="#f4b78a" opacity="0.6"/><circle cx="950" cy="600" r="7" fill="#f4b78a" opacity="0.6"/><circle cx="1000" cy="600" r="7" fill="#f4b78a" opacity="0.6"/><circle cx="1050" cy="600" r="7" fill="#f4b78a" opacity="0.6"/><circle cx="1100" cy="600" r="7" fill="#f4b78a" opacity="0.6"/><circle cx="1150" cy="600" r="7" fill="#f4b78a" opacity="0.6"/><circle cx="1200" cy="600" r="7" fill="#f4b78a" opacity="0.6"/><circle cx="1250" cy="600" r="7" fill="#f4b78a" opacity="0.6"/><circle cx="25" cy="650" r="7" fill="#f4b78a" opacity="0.6"/><circle cx="75" cy="650" r="7" fill="#f4b78a" opacity="0.6"/><circle cx="125" cy="650" r="7" fill="#f4b78a" opacity="0.6"/><circle cx="175" cy="650" r="7" fill="#f4b78a" opacity="0.6"/><circle cx="225" cy="650" r="7" fill="#f4b78a" opacity="0.6"/><circle cx="275" cy="650" r="7" fill="#f4b78a" opacity="0.6"/><circle cx="325" cy="650" r="7" fill="#f4b78a" opacity="0.6"/><circle cx="375" cy="650" r="7" fill="#f4b78a" opacity="0.6"/><circle cx="425" cy="650" r="7" fill="#f4b78a" opacity="0.6"/><circle cx="475" cy="650" r="7" fill="#f4b78a" opacity="0.6"/><circle cx="525" cy="650" r="7" fill="#f4b78a" opacity="0.6"/><circle cx="575" cy="650" r="7" fill="#f4b78a" opacity="0.6"/><circle cx="625" cy="650" r="7" fill="#f4b78a" opacity="0.6"/><circle cx="675" cy="650" r="7" fill="#f4b78a" opacity="0.6"/><circle cx="725" cy="650" r="7" fill="#f4b78a" opacity="0.6"/><circle cx="775" cy="650" r="7" fill="#f4b78a" opacity="0.6"/><circle cx="825" cy="650" r="7" fill="#f4b78a" opacity="0.6"/><circle cx="875" cy="650" r="7" fill="#f4b78a" opacity="0.6"/><circle cx="925" cy="650" r="7" fill="#f4b78a" opacity="0.6"/><circle cx="975" cy="650" r="7" fill="#f4b78a" opacity="0.6"/><circle cx="1025" cy="650" r="7" fill="#f4b78a" opacity="0.6"/><circle cx="1075" cy="650" r="7" fill="#f4b78a" opacity="0.6"/><circle cx="1125" cy="650" r="7" fill="#f4b78a" opacity="0.6"/><circle cx="1175" cy="650" r="7" fill="#f4b78a" opacity="0.6"/><circle cx="1225" cy="650" r="7" fill="#f4b78a" opacity="0.6"/><circle cx="1275" cy="650" r="7" fill="#f4b78a" opacity="0.6"/><circle cx="0" cy="700" r="7" fill="#f4b78a" opacity="0.6"/><circle cx="50" cy="700" r="7" fill="#f4b78a" opacity="0.6"/><circle cx="100" cy="700" r="7" fill="#f4b78a" opacity="0.6"/><circle cx="150" cy="700" r="7" fill="#f4b78a" opacity="0.6"/><circle cx="200" cy="700" r="7" fill="#f4b78a" opacity="0.6"/><circle cx="250" cy="700" r="7" fill="#f4b78a" opacity="0.6"/><circle cx="300" cy="700" r="7" fill="#f4b78a" opacity="0.6"/><circle cx="350" cy="700" r="7" fill="#f4b78a" opacity="0.6"/><circle cx="400" cy="700" r="7" fill="#f4b78a" opacity="0.6"/><circle cx="450" cy="700" r="7" fill="#f4b78a" opacity="0.6"/><circle cx="500" cy="700" r="7" fill="#f4b78a" opacity="0.6"/><circle cx="550" cy="700" r="7" fill="#f4b78a" opacity="0.6"/><circle cx="600" cy="700" r="7" fill="#f4b78a" opacity="0.6"/><circle cx="650" cy="700" r="7" fill="#f4b78a" opacity="0.6"/><circle cx="700" cy="700" r="7" fill="#f4b78a" opacity="0.6"/><circle cx="750" cy="700" r="7" fill="#f4b78a" opacity="0.6"/><circle cx="800" cy="700" r="7" fill="#f4b78a" opacity="0.6"/><circle cx="850" cy="700" r="7" fill="#f4b78a" opacity="0.6"/><circle cx="900" cy="700" r="7" fill="#f4b78a" opacity="0.6"/><circle cx="950" cy="700" r="7" fill="#f4b78a" opacity="0.6"/><circle cx="1000" cy="700" r="7" fill="#f4b78a" opacity="0.6"/><circle cx="1050" cy="700" r="7" fill="#f4b78a" opacity="0.6"/><circle cx="1100" cy="700" r="7" fill="#f4b78a" opacity="0.6"/><circle cx="1150" cy="700" r="7" fill="#f4b78a" opacity="0.6"/><circle cx="1200" cy="700" r="7" fill="#f4b78a" opacity="0.6"/><circle cx="1250" cy="700" r="7" fill="#f4b78a" opacity="0.6"/><circle cx="25" cy="750" r="7" fill="#f4b78a" opacity="0.6"/><circle cx="75" cy="750" r="7" fill="#f4b78a" opacity="0.6"/><circle cx="125" cy="750" r="7" fill="#f4b78a" opacity="0.6"/><circle cx="175" cy="750" r="7" fill="#f4b78a" opacity="0.6"/><circle cx="225" cy="750" r="7" fill="#f4b78a" opacity="0.6"/><circle cx="275" cy="750" r="7" fill="#f4b78a" opacity="0.6"/><circle cx="325" cy="750" r="7" fill="#f4b78a" opacity="0.6"/><circle cx="375" cy="750" r="7" fill="#f4b78a" opacity="0.6"/><circle cx="425" cy="750" r="7" fill="#f4b78a" opacity="0.6"/><circle cx="475" cy="750" r="7" fill="#f4b78a" opacity="0.6"/><circle cx="525" cy="750" r="7" fill="#f4b78a" opacity="0.6"/><circle cx="575" cy="750" r="7" fill="#f4b78a" opacity="0.6"/><circle cx="625" cy="750" r="7" fill="#f4b78a" opacity="0.6"/><circle cx="675" cy="750" r="7" fill="#f4b78a" opacity="0.6"/><circle cx="725" cy="750" r="7" fill="#f4b78a" opacity="0.6"/><circle cx="775" cy="750" r="7" fill="#f4b78a" opacity="0.6"/><circle cx="825" cy="750" r="7" fill="#f4b78a" opacity="0.6"/><circle cx="875" cy="750" r="7" fill="#f4b78a" opacity="0.6"/><circle cx="925" cy="750" r="7" fill="#f4b78a" opacity="0.6"/><circle cx="975" cy="750" r="7" fill="#f4b78a" opacity="0.6"/><circle cx="1025" cy="750" r="7" fill="#f4b78a" opacity="0.6"/><circle cx="1075" cy="750" r="7" fill="#f4b78a" opacity="0.6"/><circle cx="1125" cy="750" r="7" fill="#f4b78a" opacity="0.6"/><circle cx="1175" cy="750" r="7" fill="#f4b78a" opacity="0.6"/><circle cx="1225" cy="750" r="7" fill="#f4b78a" opacity="0.6"/><circle cx="1275" cy="750" r="7" fill="#f4b78a" opacity="0.6"/><circle cx="0" cy="800" r="7" fill="#f4b78a" opacity="0.6"/><circle cx="50" cy="800" r="7" fill="#f4b78a" opacity="0.6"/><circle cx="100" cy="800" r="7" fill="#f4b78a" opacity="0.6"/><circle cx="150" cy="800" r="7" fill="#f4b78a" opacity="0.6"/><circle cx="200" cy="800" r="7" fill="#f4b78a" opacity="0.6"/><circle cx="250" cy="800" r="7" fill="#f4b78a" opacity="0.6"/><circle cx="300" cy="800" r="7" fill="#f4b78a" opacity="0.6"/><circle cx="350" cy="800" r="7" fill="#f4b78a" opacity="0.6"/><circle cx="400" cy="800" r="7" fill="#f4b78a" opacity="0.6"/><circle cx="450" cy="800" r="7" fill="#f4b78a" opacity="0.6"/><circle cx="500" cy="800" r="7" fill="#f4b78a" opacity="0.6"/><circle cx="550" cy="800" r="7" fill="#f4b78a" opacity="0.6"/><circle cx="600" cy="800" r="7" fill="#f4b78a" opacity="0.6"/><circle cx="650" cy="800" r="7" fill="#f4b78a" opacity="0.6"/><circle cx="700" cy="800" r="7" fill="#f4b78a" opacity="0.6"/><circle cx="750" cy="800" r="7" fill="#f4b78a" opacity="0.6"/><circle cx="800" cy="800" r="7" fill="#f4b78a" opacity="0.6"/><circle cx="850" cy="800" r="7" fill="#f4b78a" opacity="0.6"/><circle cx="900" cy="800" r="7" fill="#f4b78a" opacity="0.6"/><circle cx="950" cy="800" r="7" fill="#f4b78a" opacity="0.6"/><circle cx="1000" cy="800" r="7" fill="#f4b78a" opacity="0.6"/><circle cx="1050" cy="800" r="7" fill="#f4b78a" opacity="0.6"/><circle cx="1100" cy="800" r="7" fill="#f4b78a" opacity="0.6"/><circle cx="1150" cy="800" r="7" fill="#f4b78a" opacity="0.6"/><circle cx="1200" cy="800" r="7" fill="#f4b78a" opacity="0.6"/><circle cx="1250" cy="800" r="7" fill="#f4b78a" opacity="0.6"/><circle cx="25" cy="850" r="7" fill="#f4b78a" opacity="0.6"/><circle cx="75" cy="850" r="7" fill="#f4b78a" opacity="0.6"/><circle cx="125" cy="850" r="7" fill="#f4b78a" opacity="0.6"/><circle cx="175" cy="850" r="7" fill="#f4b78a" opacity="0.6"/><circle cx="225" cy="850" r="7" fill="#f4b78a" opacity="0.6"/><circle cx="275" cy="850" r="7" fill="#f4b78a" opacity="0.6"/><circle cx="325" cy="850" r="7" fill="#f4b78a" opacity="0.6"/><circle cx="375" cy="850" r="7" fill="#f4b78a" opacity="0.6"/><circle cx="425" cy="850" r="7" fill="#f4b78a" opacity="0.6"/><circle cx="475" cy="850" r="7" fill="#f4b78a" opacity="0.6"/><circle cx="525" cy="850" r="7" fill="#f4b78a" opacity="0.6"/><circle cx="575" cy="850" r="7" fill="#f4b78a" opacity="0.6"/><circle cx="625" cy="850" r="7" fill="#f4b78a" opacity="0.6"/><circle cx="675" cy="850" r="7" fill="#f4b78a" opacity="0.6"/><circle cx="725" cy="850" r="7" fill="#f4b78a" opacity="0.6"/><circle cx="775" cy="850" r="7" fill="#f4b78a" opacity="0.6"/><circle cx="825" cy="850" r="7" fill="#f4b78a" opacity="0.6"/><circle cx="875" cy="850" r="7" fill="#f4b78a" opacity="0.6"/><circle cx="925" cy="850" r="7" fill="#f4b78a" opacity="0.6"/><circle cx="975" cy="850" r="7" fill="#f4b78a" opacity="0.6"/><circle cx="1025" cy="850" r="7" fill="#f4b78a" opacity="0.6"/><circle cx="1075" cy="850" r="7" fill="#f4b78a" opacity="0.6"/><circle cx="1125" cy="850" r="7" fill="#f4b78a" opacity="0.6"/><circle cx="1175" cy="850" r="7" fill="#f4b78a" opacity="0.6"/><circle cx="1225" cy="850" r="7" fill="#f4b78a" opacity="0.6"/><circle cx="1275" cy="850" r="7" fill="#f4b78a" opacity="0.6"/><circle cx="0" cy="900" r="7" fill="#f4b78a" opacity="0.6"/><circle cx="50" cy="900" r="7" fill="#f4b78a" opacity="0.6"/><circle cx="100" cy="900" r="7" fill="#f4b78a" opacity="0.6"/><circle cx="150" cy="900" r="7" fill="#f4b78a" opacity="0.6"/><circle cx="200" cy="900" r="7" fill="#f4b78a" opacity="0.6"/><circle cx="250" cy="900" r="7" fill="#f4b78a" opacity="0.6"/><circle cx="300" cy="900" r="7" fill="#f4b78a" opacity="0.6"/><circle cx="350" cy="900" r="7" fill="#f4b78a" opacity="0.6"/><circle cx="400" cy="900" r="7" fill="#f4b78a" opacity="0.6"/><circle cx="450" cy="900" r="7" fill="#f4b78a" opacity="0.6"/><circle cx="500" cy="900" r="7" fill="#f4b78a" opacity="0.6"/><circle cx="550" cy="900" r="7" fill="#f4b78a" opacity="0.6"/><circle cx="600" cy="900" r="7" fill="#f4b78a" opacity="0.6"/><circle cx="650" cy="900" r="7" fill="#f4b78a" opacity="0.6"/><circle cx="700" cy="900" r="7" fill="#f4b78a" opacity="0.6"/><circle cx="750" cy="900" r="7" fill="#f4b78a" opacity="0.6"/><circle cx="800" cy="900" r="7" fill="#f4b78a" opacity="0.6"/><circle cx="850" cy="900" r="7" fill="#f4b78a" opacity="0.6"/><circle cx="900" cy="900" r="7" fill="#f4b78a" opacity="0.6"/><circle cx="950" cy="900" r="7" fill="#f4b78a" opacity="0.6"/><circle cx="1000" cy="900" r="7" fill="#f4b78a" opacity="0.6"/><circle cx="1050" cy="900" r="7" fill="#f4b78a" opacity="0.6"/><circle cx="1100" cy="900" r="7" fill="#f4b78a" opacity="0.6"/><circle cx="1150" cy="900" r="7" fill="#f4b78a" opacity="0.6"/><circle cx="1200" cy="900" r="7" fill="#f4b78a" opacity="0.6"/><circle cx="1250" cy="900" r="7" fill="#f4b78a" opacity="0.6"/><circle cx="25" cy="950" r="7" fill="#f4b78a" opacity="0.6"/><circle cx="75" cy="950" r="7" fill="#f4b78a" opacity="0.6"/><circle cx="125" cy="950" r="7" fill="#f4b78a" opacity="0.6"/><circle cx="175" cy="950" r="7" fill="#f4b78a" opacity="0.6"/><circle cx="225" cy="950" r="7" fill="#f4b78a" opacity="0.6"/><circle cx="275" cy="950" r="7" fill="#f4b78a" opacity="0.6"/><circle cx="325" cy="950" r="7" fill="#f4b78a" opacity="0.6"/><circle cx="375" cy="950" r="7" fill="#f4b78a" opacity="0.6"/><circle cx="425" cy="950" r="7" fill="#f4b78a" opacity="0.6"/><circle cx="475" cy="950" r="7" fill="#f4b78a" opacity="0.6"/><circle cx="525" cy="950" r="7" fill="#f4b78a" opacity="0.6"/><circle cx="575" cy="950" r="7" fill="#f4b78a" opacity="0.6"/><circle cx="625" cy="950" r="7" fill="#f4b78a" opacity="0.6"/><circle cx="675" cy="950" r="7" fill="#f4b78a" opacity="0.6"/><circle cx="725" cy="950" r="7" fill="#f4b78a" opacity="0.6"/><circle cx="775" cy="950" r="7" fill="#f4b78a" opacity="0.6"/><circle cx="825" cy="950" r="7" fill="#f4b78a" opacity="0.6"/><circle cx="875" cy="950" r="7" fill="#f4b78a" opacity="0.6"/><circle cx="925" cy="950" r="7" fill="#f4b78a" opacity="0.6"/><circle cx="975" cy="950" r="7" fill="#f4b78a" opacity="0.6"/><circle cx="1025" cy="950" r="7" fill="#f4b78a" opacity="0.6"/><circle cx="1075" cy="950" r="7" fill="#f4b78a" opacity="0.6"/><circle cx="1125" cy="950" r="7" fill="#f4b78a" opacity="0.6"/><circle cx="1175" cy="950" r="7" fill="#f4b78a" opacity="0.6"/><circle cx="1225" cy="950" r="7" fill="#f4b78a" opacity="0.6"/><circle cx="1275" cy="950" r="7" fill="#f4b78a" opacity="0.6"/></svg>
