<svg xmlns="http://www.w3.org/2000/svg" width="32" height="32" viewBox="0 0 32 32"><defs>
<linearGradient id="tile" x1="0" y1="0" x2="0" y2="1"><stop offset="0" stop-color="#f4679d"/><stop offset="1" stop-color="#de3e80"/></linearGradient>
<linearGradient id="phone" x1="0" y1="0" x2="0" y2="1"><stop offset="0" stop-color="#485a6c"/><stop offset="1" stop-color="#273445"/></linearGradient>
<linearGradient id="hl" x1="0" y1="0" x2="0" y2="1"><stop offset="0" stop-color="#fff"/><stop offset=".06" stop-color="#fff" stop-opacity=".235"/><stop offset=".95" stop-color="#fff" stop-opacity=".157"/><stop offset="1" stop-color="#fff" stop-opacity=".392"/></linearGradient>
<radialGradient id="floor"><stop offset="0" stop-color="#000"/><stop offset="1" stop-color="#000" stop-opacity="0"/></radialGradient>
</defs><ellipse cx="16.0" cy="29.50" rx="12.50" ry="1.25" fill="url(#floor)" opacity=".35"/><g><rect x="4" y="2" width="14" height="23" rx="2.5" fill="url(#phone)"/><rect x="4.5" y="2.5" width="13" height="22" rx="2.0" fill="none" stroke="#0e141f" stroke-opacity=".6"/><rect x="5" y="3" width="12" height="21" rx="1.5" fill="#1a1a1a"/><rect x="9.00" y="3.75" width="4.00" height="1.00" rx="0.50" fill="#000"/></g><rect x="9" y="9" width="20" height="20" rx="2.0" fill="#000" opacity=".15"/><rect x="9" y="8" width="20" height="20" rx="2.0" fill="url(#tile)"/><rect x="9.5" y="8.5" width="19" height="19" rx="1.5" fill="none" stroke="#910e38" stroke-opacity=".5"/><rect x="10.5" y="9.5" width="17" height="17" rx="0.5" fill="none" stroke="url(#hl)" stroke-opacity=".6"/><path d="M-50 24 C-33 0 -16 -16 0 -18 C15 -17 30 -2 47 18 C51 24 45 32 38 28 C27 16 14 6 1 6 C-12 7 -26 20 -38 33 C-43 39 -54 31 -50 24 Z" transform="translate(0 1) translate(19.00 18.80) rotate(-12) scale(0.1600)" fill="#000" opacity=".15"/><path d="M-50 24 C-33 0 -16 -16 0 -18 C15 -17 30 -2 47 18 C51 24 45 32 38 28 C27 16 14 6 1 6 C-12 7 -26 20 -38 33 C-43 39 -54 31 -50 24 Z" transform="translate(19.00 18.80) rotate(-12) scale(0.1600)" fill="#fff"/></svg>
